<svg xmlns="http://www.w3.org/2000/svg" viewBox="0 0 220 220">
    <g
            fill="#FFD700"
            stroke="#FFD700"
            transform="translate(-30, 310) scale(0.100000,-0.100000)"
    >
        <rect x="1100" y="2600" width="40" height="200"/>
        <rect x="1250" y="2750" width="40" height="200"/>
        <rect x="1400" y="2900" width="40" height="200"/>
        <rect x="1550" y="2750" width="40" height="200"/>
        <rect x="1700" y="2600" width="40" height="200"/>
        <path d="M1379 2757 c-51 -64 -72 -118 -77 -199 -4 -66 -2 -81 17 -112 28 -45
67 -76 97 -76 31 0 83 46 105 95 24 53 24 121 -1 188 -21 55 -82 137 -103 137 z"/>
        <path d="M1097 2417 c16 -220 84 -320 245 -363 29 -7 53 -14 53 -14 0 0 -2 40
 -5 88 -5 71 -11 97 -32 134 -32 53 -78 96 -145 134 -26 15 -64 37 -84 50 l-36
22 4 -51z m133 z"/>
        <path d="M1685 2432 c-186 -100 -238 -167 -239 -304 0 -43 3 -80 5 -83 8 -8
99 25 139 50 47 30 99 89 121 140 27 62 50 226 32 225 z"/>
        <path stroke-width="40" d="M 1250 900 l 0 300 m 5 -15 l -500 500 m 5 -15 l 0 700 "/>
        <path stroke-width="40" d="M 1250 1050 l -600 600 m 5 -15 l 0 300 "/>
        <path stroke-width="40" d="M 1590 900 l 0 300 m -5 -15 l 500 500 m -5 -15 l 0 700 "/>
        <path stroke-width="40" d="M 1590 1050 l 600 600 m -5 -15 l 0 300 "/>
        <path d="M1098 2115 c-9 -9 12 -184 26 -224 34 -94 129 -172 226 -186 l45 -7
 -6 84 c-3 48 -13 99 -23 120 -24 50 -92 110 -165 148 -34 17 -70 39 -80 49 z"/>
        <path d="M1731 2107 c-6 -8 -47 -33 -92 -57 -92 -50 -159 -117 -177 -178 -7
 -21 -12 -69 -12 -106 0 -77 5 -79 90 -47 107 41 181 129 199 236 25 154 23
189 -8 152z m-26 -129 c-12 -91 -59 -161 -134 z"/>
        <path d="M1097 1693 c8 -100 24 -155 63 -212 42 -62 95 -98 169 -115 l61 -14
0 72 c0 61 -5 83 -30 132 -31 64 -92 118 -164 148 -22 9 -55 28 -73 42 l-33
25 7 -78z m129 -49 c76 -43 124 z"/>
        <path d="M1731 1757 c-6 -8 -47 -33 -92 -57 -129 -70 -174 -135 -185 -267 l-7
 -81 44 8 c165 31 248 135 265 333 7 77 0 94 -25 64z m-21 -111 c0 -92 -76
 -202 z"/>
        <rect x="1377" y="700" width="80" height="600"/>
    </g>
</svg>
